#!OML:ASF H:\Pregnant\Project 1\Capture day 1\Session 1\femalepreg.ASF
:FULLY-SPECIFIED
:DEGREES
953
root -2.44995 7.82674 24.8287 44.9622 -65.7119 -8.62211
lowerback 39.6356 5.18823 -10.4741
upperback -0.384789 1.17624 -1.6426
thorax -20.4301 1.27754 3.05451
lowerneck -29.5596 0.814468 1.74509
upperneck 12.9537 -1.88157 10.2508
head 8.96857 0.382127 3.0259
rclavicle -3.73715e-014 2.62396e-014
rhumerus 1.35691 23.4381 -89.5691
rradius 37.2359
rwrist 22.8855
rhand -50.8682 -22.5357
rfingers 7.12502
rthumb -23.4222 -51.1302
lclavicle -3.73715e-014 2.62396e-014
lhumerus 1.25231 -19.7079 80.6638
lradius 40.6381
lwrist 15.2614
lhand -51.3133 -36.0009
lfingers 7.12502
lthumb -23.8491 -7.46148
rfemur -61.8209 18.5772 9.4372
rtibia 130.93
rfoot -7.87601 26.9556
rtoes -12.023
lfemur -69.3152 19.6013 -11.8835
ltibia 133.219
lfoot 10.9509 -27.0261
ltoes -3.26207
954
root -2.45662 7.82965 24.8402 44.745 -65.7746 -8.57122
lowerback 39.7584 5.16005 -10.3703
upperback -0.390573 1.1867 -1.57225
thorax -20.4899 1.27815 3.07372
lowerneck -29.5716 0.907085 1.79884
upperneck 12.7663 -1.74168 10.1563
head 8.89445 0.431601 3.00194
rclavicle 2.78299e-014 3.89618e-014
rhumerus 1.37198 23.5257 -89.5999
rradius 36.9967
rwrist 23.0305
rhand -50.8964 -22.5178
rfingers 7.12502
rthumb -23.4493 -51.1089
lclavicle 2.78299e-014 3.89618e-014
lhumerus 1.2183 -19.5992 80.7898
lradius 40.1629
lwrist 15.3357
lhand -51.3866 -36.5043
lfingers 7.12502
lthumb -23.9194 -7.97403
rfemur -61.53 18.3798 9.77108
rtibia 131.021
rfoot -8.62397 27.2889
rtoes -12.8928
lfemur -69.1106 19.1133 -11.3919
ltibia 133.18
lfoot 9.31193 -26.3921
ltoes -1.46621
955
root -2.46129 7.83108 24.8507 44.5853 -65.836 -8.53109
lowerback 39.8271 5.12599 -10.2681
upperback -0.403844 1.19631 -1.50652
thorax -20.5382 1.27867 3.0903
lowerneck -29.5842 0.997609 1.85847
upperneck 12.5752 -1.60889 10.0687
head 8.82005 0.478727 2.97834
rclavicle -7.15625e-015 -3.89618e-014
rhumerus 1.38741 23.6132 -89.6288
rradius 36.7664
rwrist 23.1636
rhand -50.9292 -22.4855
rfingers 7.12502
rthumb -23.4807 -51.0726
lclavicle -7.15625e-015 -3.89618e-014
lhumerus 1.19319 -19.5384 80.8919
lradius 39.6972
lwrist 15.4188
lhand -51.4657 -36.9427
lfingers 7.12502
lthumb -23.9952 -8.42238
rfemur -61.3247 18.1523 10.0841
rtibia 131.095
rfoot -9.42138 27.5561
rtoes -14.2281
lfemur -68.9687 18.6849 -10.9163
ltibia 133.131
lfoot 8.10838 -26.0586
ltoes 0.682082
956
root -2.46381 7.8311 24.8601 44.4631 -65.8959 -8.49212
lowerback 39.8574 5.0865 -10.165
upperback -0.423264 1.20373 -1.44744
thorax -20.5793 1.27818 3.10088
lowerneck -29.5978 1.08412 1.92114
upperneck 12.3811 -1.48569 9.99286
head 8.74583 0.522712 2.95681
rclavicle 1.98785e-014 2.66371e-014
rhumerus 1.40411 23.701 -89.6549
rradius 36.5458
rwrist 23.2801
rhand -50.969 -22.444
rfingers 7.12502
rthumb -23.5189 -51.0261
lclavicle 1.98785e-014 2.66371e-014
lhumerus 1.18163 -19.5302 80.9688
lradius 39.2371
lwrist 15.5237
lhand -51.5467 -37.3226
lfingers 7.12502
lthumb -24.0729 -8.81259
rfemur -61.1865 17.896 10.3761
rtibia 131.149
rfoot -10.2737 27.7377
rtoes -15.7979
lfemur -68.8721 18.3346 -10.4632
ltibia 133.073
lfoot 7.20949 -26.0274
ltoes 2.76317
957
root -2.4643 7.82995 24.8685 44.3566 -65.9564 -8.4488
lowerback 39.8703 5.04469 -10.0615
upperback -0.446842 1.20934 -1.39542
thorax -20.6186 1.27674 3.10439
lowerneck -29.6112 1.1653 1.98338
upperneck 12.1837 -1.37287 9.93144
head 8.67162 0.56325 2.93874
rclavicle 5.56597e-015 -1.39149e-014
rhumerus 1.42164 23.7903 -89.6762
rradius 36.3374
rwrist 23.3772
rhand -51.0149 -22.3996
rfingers 7.12502
rthumb -23.5629 -50.9761
lclavicle 5.56597e-015 -1.39149e-014
lhumerus 1.18679 -19.5734 81.0238
lradius 38.778
lwrist 15.6649
lhand -51.6286 -37.6654
lfingers 7.12502
lthumb -24.1514 -9.16578
rfemur -61.0887 17.6171 10.6492
rtibia 131.177
rfoot -11.1483 27.8414
rtoes -17.3297
lfemur -68.7948 18.0602 -10.0428
ltibia 133.012
lfoot 6.49922 -26.239
ltoes 4.51614
958
root -2.46297 7.82784 24.8759 44.2468 -66.0218 -8.40038
lowerback 39.8864 5.00542 -9.96136
upperback -0.472084 1.21456 -1.35022
thorax -20.661 1.27509 3.10174
lowerneck -29.6235 1.24104 2.04404
upperneck 11.9829 -1.26993 9.88448
head 8.59718 0.60046 2.92436
rclavicle 5.96354e-014 4.77083e-015
rhumerus 1.44024 23.8816 -89.6924
rradius 36.1419
rwrist 23.4547
rhand -51.0633 -22.3559
rfingers 7.12502
rthumb -23.6094 -50.9264
lclavicle 5.96354e-014 4.77083e-015
lhumerus 1.21155 -19.6587 81.0623
lradius 38.3143
lwrist 15.8447
lhand -51.7051 -37.9868
lfingers 7.12502
lthumb -24.2248 -9.49695
rfemur -61.0031 17.3313 10.9083
rtibia 131.171
rfoot -11.9933 27.8922
rtoes -18.5904
lfemur -68.7107 17.8395 -9.66716
ltibia 132.953
lfoot 5.87856 -26.5913
ltoes 5.84719
959
root -2.46003 7.82492 24.8824 44.1233 -66.0969 -8.35011
lowerback 39.9193 4.97374 -9.87008
upperback -0.496843 1.22137 -1.31103
thorax -20.7092 1.27444 3.09538
lowerneck -29.6334 1.31196 2.10289
upperneck 11.7785 -1.17546 9.8506
head 8.522 0.634773 2.91341
rclavicle 3.18055e-015 -2.42517e-014
rhumerus 1.46017 23.9748 -89.7039
rradius 35.9598
rwrist 23.5148
rhand -51.1091 -22.3181
rfingers 7.12502
rthumb -23.6532 -50.883
lclavicle 3.18055e-015 -2.42517e-014
lhumerus 1.25725 -19.7722 81.0901
lradius 37.8424
lwrist 16.0556
lhand -51.7691 -38.2896
lfingers 7.12502
lthumb -24.2861 -9.80798
rfemur -60.9091 17.0614 11.1608
rtibia 131.129
rfoot -12.7564 27.9248
rtoes -19.4469
lfemur -68.6036 17.654 -9.34577
ltibia 132.907
lfoot 5.27847 -26.9797
ltoes 6.79854
960
root -2.45575 7.82137 24.8879 43.9819 -66.1862 -8.30145
lowerback 39.9752 4.95341 -9.79354
upperback -0.519542 1.23117 -1.27691
thorax -20.7638 1.2758 3.08857
lowerneck -29.6398 1.37919 2.16082
upperneck 11.5706 -1.08745 9.82653
head 8.44587 0.666777 2.90489
rclavicle 8.74653e-015 1.98785e-015
rhumerus 1.48273 24.0686 -89.712
rradius 35.7893
rwrist 23.562
rhand -51.1471 -22.2865
rfingers 7.12502
rthumb -23.6897 -50.8467
lclavicle 8.74653e-015 1.98785e-015
lhumerus 1.32343 -19.8969 81.1124
lradius 37.3621
lwrist 16.2815
lhand -51.8115 -38.5614
lfingers 7.12502
lthumb -24.3268 -10.0852
rfemur -60.7946 16.8236 11.413
rtibia 131.05
rfoot -13.4099 27.9681
rtoes -19.905
lfemur -68.4652 17.4872 -9.08534
ltibia 132.881
lfoot 4.66921 -27.3165
ltoes 7.50705
961
root -2.45041 7.81735 24.8925 43.8223 -66.2921 -8.25629
lowerback 40.055 4.94626 -9.73647
upperback -0.539399 1.24423 -1.24664
thorax -20.8241 1.27974 3.08497
lowerneck -29.642 1.44398 2.21787
upperneck 11.36 -1.00352 9.80915
head 8.36867 0.69726 2.89806
rclavicle -3.65764e-014 -3.65764e-014
rhumerus 1.5095 24.1625 -89.7182
rradius 35.6279
rwrist 23.6012
rhand -51.1733 -22.2603
rfingers 7.12502
rthumb -23.7148 -50.8172
lclavicle -3.65764e-014 -3.65764e-014
lhumerus 1.40686 -20.0148 81.1335
lradius 36.8773
lwrist 16.5035
lhand -51.8253 -38.7835
lfingers 7.12502
lthumb -24.34 -10.3091
rfemur -60.6565 16.6243 11.6698
rtibia 130.933
rfoot -13.9573 28.0348
rtoes -20.0714
lfemur -68.295 17.3333 -8.88871
ltibia 132.88
lfoot 4.04292 -27.5444
ltoes 8.07501
962
root -2.44425 7.81312 24.8962 43.6465 -66.4149 -8.21433
lowerback 40.1558 4.95184 -9.70065
upperback -0.556342 1.25971 -1.21958
thorax -20.8887 1.28616 3.08682
lowerneck -29.6392 1.50731 2.27418
upperneck 11.1479 -0.921731 9.79527
head 8.29054 0.726825 2.89209
rclavicle -1.82882e-014 3.1408e-014
rhumerus 1.54199 24.2565 -89.7237
rradius 35.4733
rwrist 23.6365
rhand -51.1858 -22.2389
rfingers 7.12502
rthumb -23.7268 -50.7943
lclavicle -1.82882e-014 3.1408e-014
lhumerus 1.50196 -20.1146 81.1536
lradius 36.3967
lwrist 16.7111
lhand -51.8082 -38.9403
lfingers 7.12502
lthumb -24.3237 -10.4636
rfemur -60.497 16.457 11.933
rtibia 130.78
rfoot -14.4301 28.1137
rtoes -20.098
lfemur -68.0977 17.1951 -8.75572
ltibia 132.902
lfoot 3.41207 -27.6397
ltoes 8.55677
963
root -2.43762 7.80907 24.8992 43.4566 -66.5523 -8.17386
lowerback 40.2741 4.96819 -9.68569
upperback -0.570661 1.276 -1.19469
thorax -20.9565 1.29449 3.09604
lowerneck -29.6309 1.57025 2.32995
upperneck 10.936 -0.840028 9.78126
head 8.21183 0.756134 2.886
rclavicle -3.18055e-015 -5.96354e-015
rhumerus 1.58166 24.352 -89.7292
rradius 35.324
rwrist 23.6711
rhand -51.184 -22.2218
rfingers 7.12502
rthumb -23.725 -50.7774
lclavicle -3.18055e-015 -5.96354e-015
lhumerus 1.60189 -20.1873 81.1727
lradius 35.9303
lwrist 16.899
lhand -51.7611 -39.025
lfingers 7.12502
lthumb -24.2784 -10.5423
rfemur -60.3197 16.2964 12.2007
rtibia 130.591
rfoot -14.8542 28.1976
rtoes -20.0962
lfemur -67.8777 17.0766 -8.68411
ltibia 132.943
lfoot 2.79448 -27.605
ltoes 8.95342
964
root -2.43079 7.80555 24.9017 43.2561 -66.7011 -8.1347
lowerback 40.4065 4.99259 -9.68941
upperback -0.582774 1.29131 -1.17095
thorax -21.0265 1.30395 3.11372
lowerneck -29.6171 1.63424 2.38723
upperneck 10.7269 -0.756588 9.76275
head 8.13326 0.785798 2.87828
rclavicle -5.725e-014 3.26007e-014
rhumerus 1.6299 24.4521 -89.7348
rradius 35.1795
rwrist 23.7049
rhand -51.1697 -22.2077
rfingers 7.12502
rthumb -23.7114 -50.765
lclavicle -5.725e-014 3.26007e-014
lhumerus 1.70028 -20.2278 81.1893
lradius 35.4859
lwrist 17.0672
lhand -51.6874 -39.0453
lfingers 7.12502
lthumb -24.2078 -10.5531
rfemur -60.1292 16.1149 12.4715
rtibia 130.366
rfoot -15.25 28.2737
rtoes -20.1176
lfemur -67.6397 16.9788 -8.67028
ltibia 132.994
lfoot 2.20033 -27.4562
ltoes 9.21364
965
root -2.42392 7.80282 24.9039 43.0523 -66.8574 -8.09931
lowerback 40.548 5.02292 -9.7083
upperback -0.593188 1.3056 -1.14696
thorax -21.0975 1.31435 3.13984
lowerneck -29.5978 1.69968 2.44712
upperneck 10.5223 -0.670567 9.73537
head 8.0553 0.815907 2.86741
rclavicle 7.07673e-014 -6.32135e-014
rhumerus 1.68755 24.5586 -89.7386
rradius 35.0402
rwrist 23.7372
rhand -51.1449 -22.1935
rfingers 7.12502
rthumb -23.6876 -50.754
lclavicle 7.07673e-014 -6.32135e-014
lhumerus 1.79289 -20.2358 81.2041
lradius 35.0681
lwrist 17.2217
lhand -51.5944 -39.0206
lfingers 7.12502
lthumb -24.1187 -10.5167
rfemur -59.9327 15.886 12.7453
rtibia 130.109
rfoot -15.6282 28.3303
rtoes -20.1781
lfemur -67.3902 16.9042 -8.70856
ltibia 133.046
lfoot 1.64337 -27.2232
ltoes 9.32733
966
root -2.41693 7.80089 24.9056 42.8541 -67.0177 -8.07258
lowerback 40.6936 5.05781 -9.73859
upperback -0.602346 1.31988 -1.12151
thorax -21.1683 1.32583 3.17344
lowerneck -29.5726 1.76644 2.51096
upperneck 10.3237 -0.582029 9.69539
head 7.97841 0.846192 2.85191
rclavicle 3.65764e-014 -4.29375e-014
rhumerus 1.75546 24.6723 -89.7387
rradius 34.9067
rwrist 23.7661
rhand -51.1121 -22.1749
rfingers 7.12502
rthumb -23.6561 -50.7394
lclavicle 3.65764e-014 -4.29375e-014
lhumerus 1.87839 -20.2136 81.2193
lradius 34.6773
lwrist 17.3674
lhand -51.4912 -38.9736
lfingers 7.12502
lthumb -24.0197 -10.4566
rfemur -59.7369 15.5962 13.0254
rtibia 129.825
rfoot -15.9896 28.3536
rtoes -20.2601
lfemur -67.1369 16.8529 -8.79207
ltibia 133.092
lfoot 1.13322 -26.9353
ltoes 9.32192
